<svg xmlns="http://www.w3.org/2000/svg" viewBox="0 0 800 500">
  <rect width="800" height="500" fill="#0f0d0c"/>
  <rect x="0" y="0" width="800" height="38" fill="#1a1614"/>
  <circle cx="22" cy="19" r="5" fill="#d97a3a"/>
  <circle cx="40" cy="19" r="5" fill="#635a4f"/>
  <circle cx="58" cy="19" r="5" fill="#635a4f"/>
  <text x="400" y="24" font-family="JetBrains Mono, monospace" font-size="11" fill="#a39788" text-anchor="middle">asana-lite.app/today</text>
  <!-- header -->
  <text x="40" y="90" font-family="Space Grotesk, sans-serif" font-size="22" fill="#e9e2d4">Today · 12 April</text>
  <text x="40" y="112" font-family="JetBrains Mono, monospace" font-size="11" fill="#635a4f">5 tasks · 2 done</text>
  <!-- task list -->
  <g font-family="JetBrains Mono, monospace" font-size="13">
    <line x1="40" y1="140" x2="760" y2="140" stroke="#1f1a16"/>
    <rect x="50" y="155" width="14" height="14" fill="none" stroke="#d97a3a" stroke-width="2"/>
    <line x1="52" y1="162" x2="62" y2="172" stroke="#d97a3a" stroke-width="2"/>
    <line x1="62" y1="172" x2="68" y2="158" stroke="#d97a3a" stroke-width="2"/>
    <text x="80" y="168" fill="#635a4f" text-decoration="line-through">Ship the noir redesign</text>
    <line x1="40" y1="190" x2="760" y2="190" stroke="#1f1a16"/>

    <rect x="50" y="205" width="14" height="14" fill="none" stroke="#d97a3a" stroke-width="2"/>
    <line x1="52" y1="212" x2="62" y2="222" stroke="#d97a3a" stroke-width="2"/>
    <line x1="62" y1="222" x2="68" y2="208" stroke="#d97a3a" stroke-width="2"/>
    <text x="80" y="218" fill="#635a4f" text-decoration="line-through">Refactor scroll triggers</text>
    <line x1="40" y1="240" x2="760" y2="240" stroke="#1f1a16"/>

    <rect x="50" y="255" width="14" height="14" fill="none" stroke="#a39788" stroke-width="1.5"/>
    <text x="80" y="268" fill="#e9e2d4">Wire wardrobe-reveal scan</text>
    <text x="700" y="268" fill="#d97a3a">·02h</text>
    <line x1="40" y1="290" x2="760" y2="290" stroke="#1f1a16"/>

    <rect x="50" y="305" width="14" height="14" fill="none" stroke="#a39788" stroke-width="1.5"/>
    <text x="80" y="318" fill="#e9e2d4">Rebuild contact mailroom</text>
    <text x="700" y="318" fill="#d97a3a">·45m</text>
    <line x1="40" y1="340" x2="760" y2="340" stroke="#1f1a16"/>

    <rect x="50" y="355" width="14" height="14" fill="none" stroke="#a39788" stroke-width="1.5"/>
    <text x="80" y="368" fill="#e9e2d4">Tune cinematic noir lights</text>
    <text x="700" y="368" fill="#d97a3a">·1h</text>
    <line x1="40" y1="390" x2="760" y2="390" stroke="#1f1a16"/>
  </g>
  <text x="40" y="450" font-family="JetBrains Mono, monospace" font-size="10" fill="#635a4f">⌘N  new task    ⌘K  command palette    SPACE  toggle</text>
</svg>
