<svg xmlns="http://www.w3.org/2000/svg" viewBox="0 0 800 500">
  <rect width="800" height="500" fill="#14110f"/>
  <rect x="0" y="0" width="800" height="38" fill="#1f1a16"/>
  <circle cx="22" cy="19" r="5" fill="#d97a3a"/>
  <circle cx="40" cy="19" r="5" fill="#635a4f"/>
  <circle cx="58" cy="19" r="5" fill="#635a4f"/>
  <text x="400" y="24" font-family="JetBrains Mono, monospace" font-size="11" fill="#a39788" text-anchor="middle">nimbus.app/board/8af2</text>
  <!-- canvas grid -->
  <g stroke="#1f1a16" stroke-width="1">
    <path d="M0 110 H800 M0 180 H800 M0 250 H800 M0 320 H800 M0 390 H800 M0 460 H800"/>
    <path d="M120 38 V500 M240 38 V500 M360 38 V500 M480 38 V500 M600 38 V500 M720 38 V500"/>
  </g>
  <!-- sticky cards -->
  <rect x="80" y="90" width="180" height="120" fill="#d97a3a" opacity="0.85"/>
  <rect x="90" y="105" width="120" height="6" fill="#0a0807" opacity="0.6"/>
  <rect x="90" y="118" width="150" height="4" fill="#0a0807" opacity="0.4"/>
  <rect x="90" y="128" width="140" height="4" fill="#0a0807" opacity="0.4"/>
  <rect x="90" y="138" width="100" height="4" fill="#0a0807" opacity="0.4"/>
  <rect x="300" y="170" width="180" height="120" fill="#6f8aa6" opacity="0.85"/>
  <rect x="310" y="185" width="100" height="6" fill="#0a0807" opacity="0.6"/>
  <rect x="310" y="198" width="150" height="4" fill="#0a0807" opacity="0.4"/>
  <rect x="310" y="208" width="140" height="4" fill="#0a0807" opacity="0.4"/>
  <rect x="520" y="120" width="180" height="120" fill="#e9e2d4" opacity="0.85"/>
  <rect x="530" y="135" width="120" height="6" fill="#0a0807" opacity="0.7"/>
  <rect x="530" y="148" width="150" height="4" fill="#0a0807" opacity="0.5"/>
  <rect x="530" y="158" width="140" height="4" fill="#0a0807" opacity="0.5"/>
  <!-- connecting line -->
  <path d="M260 150 Q380 150 390 170" fill="none" stroke="#d97a3a" stroke-width="2" stroke-dasharray="4 4"/>
  <path d="M480 220 Q500 220 520 180" fill="none" stroke="#d97a3a" stroke-width="2" stroke-dasharray="4 4"/>
  <!-- avatars -->
  <circle cx="730" cy="60" r="10" fill="#d97a3a"/>
  <circle cx="708" cy="60" r="10" fill="#6f8aa6"/>
  <circle cx="686" cy="60" r="10" fill="#e9e2d4"/>
  <!-- sidebar -->
  <rect x="0" y="38" width="56" height="462" fill="#0a0807"/>
  <rect x="14" y="60" width="28" height="28" fill="#d97a3a"/>
  <rect x="14" y="100" width="28" height="3" fill="#635a4f"/>
  <rect x="14" y="110" width="28" height="3" fill="#635a4f"/>
  <rect x="14" y="120" width="28" height="3" fill="#635a4f"/>
</svg>
