<svg xmlns="http://www.w3.org/2000/svg" viewBox="0 0 800 500">
  <rect width="800" height="500" fill="#0f0d0c"/>
  <rect x="0" y="0" width="800" height="38" fill="#1a1614"/>
  <circle cx="22" cy="19" r="5" fill="#d97a3a"/>
  <circle cx="40" cy="19" r="5" fill="#635a4f"/>
  <circle cx="58" cy="19" r="5" fill="#635a4f"/>
  <text x="400" y="24" font-family="JetBrains Mono, monospace" font-size="11" fill="#a39788" text-anchor="middle">pulsepay.in/dashboard</text>
  <!-- header -->
  <text x="40" y="90" font-family="Space Grotesk, sans-serif" font-size="24" font-weight="500" fill="#e9e2d4">Revenue · ₹ 4.82 Cr</text>
  <text x="40" y="112" font-family="JetBrains Mono, monospace" font-size="11" fill="#a39788">+18.4% vs last 30d</text>
  <!-- KPIs -->
  <g font-family="JetBrains Mono, monospace">
    <rect x="500" y="70" width="120" height="60" fill="#1a1614" stroke="#1f1a16"/>
    <text x="510" y="90" font-size="9" fill="#635a4f">TXN/DAY</text>
    <text x="510" y="115" font-size="18" fill="#e9e2d4">12,481</text>
    <rect x="640" y="70" width="120" height="60" fill="#1a1614" stroke="#1f1a16"/>
    <text x="650" y="90" font-size="9" fill="#635a4f">SUCCESS</text>
    <text x="650" y="115" font-size="18" fill="#e9e2d4">99.41%</text>
  </g>
  <!-- chart bars -->
  <g fill="#d97a3a">
    <rect x="50" y="280" width="22" height="120"/>
    <rect x="86" y="240" width="22" height="160"/>
    <rect x="122" y="210" width="22" height="190"/>
    <rect x="158" y="260" width="22" height="140"/>
    <rect x="194" y="180" width="22" height="220"/>
    <rect x="230" y="150" width="22" height="250"/>
    <rect x="266" y="200" width="22" height="200"/>
    <rect x="302" y="170" width="22" height="230"/>
    <rect x="338" y="140" width="22" height="260"/>
    <rect x="374" y="190" width="22" height="210"/>
    <rect x="410" y="120" width="22" height="280"/>
    <rect x="446" y="100" width="22" height="300"/>
  </g>
  <!-- sparkline area -->
  <path d="M500 380 L540 360 L580 370 L620 340 L660 330 L700 290 L740 260 L780 240" fill="none" stroke="#6f8aa6" stroke-width="2"/>
  <path d="M500 380 L540 360 L580 370 L620 340 L660 330 L700 290 L740 260 L780 240 L780 460 L500 460 Z" fill="#6f8aa6" opacity="0.12"/>
  <!-- axis -->
  <line x1="40" y1="400" x2="780" y2="400" stroke="#1f1a16"/>
  <text x="40" y="430" font-family="JetBrains Mono, monospace" font-size="9" fill="#635a4f">Mon  Tue  Wed  Thu  Fri  Sat  Sun</text>
</svg>
